<?xml version="1.0" encoding="utf-8"?>
<!-- Generator: Adobe Illustrator 16.0.0, SVG Export Plug-In . SVG Version: 6.00 Build 0)  -->
<!DOCTYPE svg PUBLIC "-//W3C//DTD SVG 1.1//EN" "http://www.w3.org/Graphics/SVG/1.1/DTD/svg11.dtd">
<svg version="1.1" id="Layer_1" xmlns="http://www.w3.org/2000/svg" xmlns:xlink="http://www.w3.org/1999/xlink" x="0px" y="0px"
	 width="442.906px" height="488.781px" viewBox="88.594 166.531 442.906 488.781"
	 enable-background="new 88.594 166.531 442.906 488.781" xml:space="preserve">
<g>
	<title>Layer 1</title>
	<g id="layer1">
		<path id="path8" marker-start="none" marker-end="none" marker-mid="none" fill="#FF0000" d="M310.063,655.313
			c-122.246,0-221.469-99.225-221.469-221.469c0-60.886,24.713-115.942,64.531-155.969l0.188,0.188
			c8.05-11.113,21.051-18.406,35.813-18.406c24.449,0,44.313,19.833,44.313,44.281c0,14.992-7.497,28.204-18.906,36.219l0.156,0.156
			c-23.926,24.097-38.906,56.997-38.906,93.531c0,73.701,60.11,133.531,134.156,133.531s134.125-59.83,134.125-133.531
			c0-33.343-12.54-63.58-32.906-86.938c-12.114-7.907-20.188-21.527-20.188-37.063c0-24.449,19.863-44.313,44.313-44.313
			c11.952,0,22.748,4.827,30.719,12.531l0.625-0.625c40.052,40.057,64.875,95.319,64.875,156.406
			C531.5,556.088,432.309,655.313,310.063,655.313z M310.031,435.375c-24.538,0-44.281-20.103-44.281-45.094V211.625
			c0-24.991,19.744-45.094,44.281-45.094c24.537,0,44.313,20.103,44.313,45.094v178.656
			C354.344,415.272,334.568,435.375,310.031,435.375z"/>
	</g>
</g>
</svg>
